<?xml version="1.0" encoding="UTF-8"?>
<svg width="200px" height="200px" viewBox="0 0 200 200" version="1.1" xmlns="http://www.w3.org/2000/svg" xmlns:xlink="http://www.w3.org/1999/xlink">
    <!-- Generator: Sketch 52.5 (67469) - http://www.bohemiancoding.com/sketch -->
    <title>Dog Yellow</title>
    <desc>Created with Sketch.</desc>
    <defs>
        <rect id="path-1" x="0" y="0" width="200" height="200" rx="100"></rect>
    </defs>
    <g id="Page-1" stroke="none" stroke-width="1" fill="none" fill-rule="evenodd">
        <g id="Artboard" transform="translate(-559.000000, -304.000000)">
            <g id="Dog-Yellow" transform="translate(559.000000, 304.000000)">
                <mask id="mask-2" fill="white">
                    <use xlink:href="#path-1"></use>
                </mask>
                <use id="Rectangle" fill="#F9D423" xlink:href="#path-1"></use>
                <g id="dog-copy" mask="url(#mask-2)" fill="#111111" fill-rule="nonzero">
                    <g transform="translate(28.000000, 26.000000)" id="Combined-Shape">
                        <path d="M119.219433,56.6023531 L123.054781,56.8338921 C135.958874,57.5269946 151.865851,58.4155877 151.865851,81.2417663 C151.865851,116.474481 145.721693,134.356528 133.618781,134.356528 L125.741293,134.356528 C114.563991,134.009443 99.2367349,133.467935 93.0506884,137.869314 C91.5179628,139.271514 90.2890074,140.986321 89.4398047,142.888443 C84.952093,151.420714 82.639261,160.938078 82.7221116,170.587666 L82.7221116,177.960145 L76.9572465,177.960145 L76.9572465,170.587666 C76.9365674,160.034735 79.5117302,149.649392 84.4481953,140.339958 C85.6977767,137.646455 87.5205395,135.258272 89.784986,133.349219 C97.5458233,127.823343 113.334558,128.330125 126.010474,128.753593 L133.694781,128.753593 C140.950837,128.753593 145.486871,113.535548 146.10134,87.6561641 C139.880651,86.4412797 134.350502,82.8730454 130.663795,77.6872163 C127.660487,73.2650441 126.300388,67.9196236 126.818195,62.5880653 L126.811292,62.5811236 L119.133878,62.1229472 C116.020175,61.9493872 112.920259,61.5120395 109.882391,60.8108863 C94.2458326,56.8676657 71.5447563,41.7684969 70.5850884,41.1090009 L68.8176465,39.9496713 L69.3906865,37.9018198 C72.1591367,28.0935296 74.8449414,10.7444609 70.1225135,5.99599731 C69.9706195,5.89880656 69.7703984,5.89880656 69.6185098,5.99599731 L69.6185098,6.002939 C65.1242586,6.73869405 54.7889656,22.34381 47.8365563,36.3252886 L42.3824074,47.2939036 L42.3824074,35.0480249 C42.3824074,23.8023466 39.6207795,7.07866976 33.7454493,7.07866976 C24.0245191,7.07866976 5.89410047,25.5027583 5.89410047,69.8080083 L5.89410047,177.95867 L0.129235349,177.960145 L0.129235349,69.8080083 C0.129235349,22.5668468 19.7998028,1.28859737 33.7459795,1.28859737 C43.1561935,1.28859737 46.4218781,14.5334324 47.53344,24.5786215 C53.0642958,14.8455063 61.86704,1.39862297 68.7020912,0.280932843 C70.6006772,0.0657156036 72.4854772,0.753060108 73.8110586,2.13453797 C81.3779721,9.74267176 76.9247256,30.6388262 75.1159256,37.6711517 C80.7293209,41.2185929 98.5900279,52.3467992 110.920763,55.4360819 C113.647926,56.0608694 116.42334,56.4426836 119.219433,56.5954115 L119.219433,56.6023531 Z M135.085051,74.7561494 L135.236862,74.7482836 C137.943169,78.2472076 141.795662,80.6700099 146.103802,81.5863626 L146.103802,81.391974 C146.103802,68.5708202 140.573653,64.8636455 132.350983,63.5099273 C131.943764,67.4599011 132.910202,71.4377768 135.078146,74.7492077 L135.085051,74.7561494 Z M68.7022326,73.014507 L67.6251535,73.0907483 C63.0271535,72.6674226 58.725907,70.6401864 55.4464186,67.3774504 L58.1735814,64.6352522 C60.8798884,67.3774504 64.5114512,69.0088006 68.3570512,69.1892916 C70.9253209,68.800621 73.1691944,67.2317211 74.4257395,64.9407505 L77.6154419,67.0650211 C75.7306419,70.3348658 72.4304744,72.5355021 68.7022326,73.014507 Z M95.5938605,69.1544588 L94.5167938,69.2308778 C89.9187938,68.8004433 85.6175473,66.7801381 82.3380589,63.5104711 L85.0652217,60.7682729 C87.7715287,63.5174021 91.4030914,65.1418035 95.2486914,65.3292434 C97.8169612,64.9405728 100.060835,63.3716729 101.31738,61.0807022 L101.310474,61.0807022 L104.500177,63.2049728 C102.615377,66.4748175 99.3221023,68.6754538 95.5938605,69.1544588 Z M60.252093,119.790046 L60.2520577,119.789939 C62.7858623,122.532173 68.122653,123.302743 75.6964949,121.955974 L76.3109637,125.815844 C73.9843033,126.225432 71.636787,126.447573 69.2756614,126.47534 C64.9192707,126.857257 60.5973451,125.357668 57.4076428,122.337873 C54.9911521,119.422044 54.0660112,115.534449 54.9083033,111.834348 L56.7931033,112.299473 L58.6365451,112.799306 C58.1050047,115.256799 58.6986707,117.818435 60.252093,119.790046 Z"></path>
                    </g>
                </g>
            </g>
        </g>
    </g>
</svg>