<svg id="Layer_1" data-name="Layer 1" xmlns="http://www.w3.org/2000/svg" xmlns:xlink="http://www.w3.org/1999/xlink" viewBox="0 0 24 10.5"><defs><style>.cls-1,.cls-2,.cls-3{fill:none;stroke-linecap:round;stroke-linejoin:round;stroke-width:1.5px;}.cls-1{stroke:url(#linear-gradient);}.cls-2{stroke:url(#linear-gradient-2);}.cls-3{stroke:url(#linear-gradient-3);}</style><linearGradient id="linear-gradient" x1="-254.46" y1="380.28" x2="-252.06" y2="380.28" gradientTransform="matrix(9.33, 0, 0, -9, 2375.37, 3428.01)" gradientUnits="userSpaceOnUse"><stop offset="0" stop-color="#f9d423"/><stop offset="1" stop-color="#ff4e50"/></linearGradient><linearGradient id="linear-gradient-2" x1="-254.46" y1="380.28" x2="-252.06" y2="380.28" gradientTransform="matrix(9.33, 0, 0, -9, 2388.54, 3428.01)" xlink:href="#linear-gradient"/><linearGradient id="linear-gradient-3" x1="-257.86" y1="11.89" x2="-255.46" y2="11.89" gradientTransform="matrix(10.5, 0, 0, -1, 2714.25, 17.39)" xlink:href="#linear-gradient"/></defs><title>hyperlink-1</title><g id="Artboard"><g id="hyperlink"><path id="Path" class="cls-1" d="M10.08,2.5A4.46,4.46,0,0,0,6.75,1H5.25a4.5,4.5,0,0,0,0,9h1.5a4.46,4.46,0,0,0,3.33-1.5" transform="translate(0 -0.25)"/><path id="Path-2" data-name="Path" class="cls-2" d="M13.92,2.5A4.46,4.46,0,0,1,17.25,1h1.5a4.5,4.5,0,0,1,0,9h-1.5a4.46,4.46,0,0,1-3.33-1.5" transform="translate(0 -0.25)"/><path id="Path-3" data-name="Path" class="cls-3" d="M6.75,5.5h10.5" transform="translate(0 -0.25)"/></g></g></svg>